<svg xmlns="http://www.w3.org/2000/svg" viewBox="0 0 64 64" fill="#1a1a1a"><path transform="translate(0,64) scale(0.0125,-0.0125)" d="M2380 4520 c-130 -24 -246 -75 -328 -143 -27 -23 -61 -51 -76 -61
-14 -10 -26 -24 -26 -31 0 -7 -7 -19 -17 -26 -34 -29 -93 -120 -147 -226 -31
-61 -56 -116 -56 -122 0 -6 -4 -19 -10 -29 -22 -41 -81 -208 -106 -299 -7 -29
-27 -92 -44 -140 -16 -49 -30 -96 -30 -106 0 -9 -4 -25 -9 -35 -5 -9 -16 -35
-24 -57 -37 -102 -83 -218 -119 -300 -82 -187 -106 -248 -134 -335 -9 -30 -20
-64 -25 -75 -4 -11 -10 -31 -13 -45 -5 -25 -20 -83 -37 -150 -23 -84 -32 -187
-32 -360 0 -179 4 -222 42 -392 13 -59 60 -199 71 -213 4 -5 27 -48 51 -95 42
-81 84 -150 129 -208 61 -79 283 -293 325 -313 11 -5 34 -17 50 -27 167 -102
360 -172 510 -187 85 -8 403 -11 455 -3 93 12 174 28 195 37 11 5 48 19 83 30
34 12 71 26 82 31 22 11 43 21 103 52 157 80 379 274 485 423 61 87 140 247
172 350 61 200 73 279 73 480 0 198 -10 278 -58 470 -47 190 -93 317 -231 640
-10 22 -23 56 -31 75 -19 49 -124 359 -134 395 -29 109 -69 237 -94 300 -7 17
-24 59 -38 95 -26 67 -71 155 -89 178 -6 7 -20 30 -32 53 -34 63 -159 193
-233 242 -75 49 -203 107 -237 107 -12 0 -27 5 -34 12 -14 14 -315 21 -382 8z
m269 -149 c20 -5 68 -17 106 -27 71 -18 163 -61 201 -95 11 -11 25 -19 30 -19
5 0 27 -23 49 -51 22 -29 53 -67 69 -86 31 -37 67 -96 92 -153 9 -19 24 -53
33 -75 51 -114 76 -185 132 -375 28 -99 79 -260 90 -285 4 -11 47 -117 94
-235 47 -118 90 -224 95 -235 40 -90 81 -212 110 -332 10 -39 21 -76 25 -82
27 -44 40 -470 18 -602 -10 -65 -15 -81 -55 -204 -36 -110 -130 -288 -193
-365 -169 -207 -399 -352 -665 -420 -161 -42 -366 -59 -439 -39 -25 7 -57 12
-70 11 -13 -1 -40 3 -60 8 -20 6 -70 20 -111 31 -163 44 -381 170 -500 289
-69 69 -180 202 -180 215 0 5 -10 22 -23 39 -20 27 -57 102 -102 211 -29 68
-54 155 -71 240 -22 107 -26 396 -7 460 10 36 26 100 39 165 16 75 75 251 129
385 94 232 145 365 145 378 0 9 4 19 10 22 5 3 19 38 31 78 12 40 25 77 29 82
4 6 10 19 13 30 27 100 98 328 137 440 55 156 149 319 241 416 80 85 260 169
360 169 21 0 41 5 44 10 8 13 106 13 154 1z M2450 2873 c-19 -3 -39 -9 -44
-14 -6 -5 -18 -9 -28 -9 -22 0 -158 -70 -213 -110 -57 -41 -126 -115 -171
-185 -40 -63 -104 -188 -104 -205 0 -6 -4 -18 -9 -28 -48 -91 -65 -416 -27
-537 37 -122 45 -141 78 -204 31 -59 164 -210 207 -235 165 -98 228 -117 394
-123 110 -5 152 -2 209 12 40 9 79 21 87 25 9 5 41 18 71 30 30 13 73 35 95
50 105 73 218 209 245 295 7 22 20 60 29 85 25 70 23 419 -3 515 -11 39 -25
79 -33 90 -7 11 -13 25 -13 33 0 58 -223 380 -264 382 -6 0 -19 9 -30 19 -34
31 -182 101 -237 111 -50 10 -169 11 -239 3z m187 -154 c50 -11 163 -60 190
-82 45 -36 145 -134 156 -153 82 -146 137 -281 137 -336 0 -15 5 -30 10 -33
17 -11 12 -259 -6 -318 -35 -114 -67 -175 -125 -240 -47 -53 -183 -147 -213
-147 -9 0 -29 -8 -43 -17 -23 -15 -51 -18 -168 -18 -150 0 -147 -1 -283 68
-139 70 -272 264 -288 421 -4 36 -11 69 -15 72 -12 7 -12 141 0 148 5 3 12 39
16 81 4 41 10 77 15 80 4 3 16 31 26 63 10 31 27 71 39 87 12 17 25 37 28 45
10 28 97 129 124 147 16 10 49 34 74 55 25 21 53 38 62 38 9 0 32 9 51 21 19
11 43 18 53 15 10 -3 25 -1 33 4 20 13 69 12 127 -1z M2419 2612 c-96 -67
-229 -220 -229 -264 0 -10 -4 -18 -9 -18 -23 0 -88 -281 -74 -317 23 -61 143
106 143 198 0 15 5 31 10 34 6 3 10 12 10 20 0 31 83 135 164 205 47 41 86 80
86 86 0 6 -10 19 -22 30 -50 43 -53 44 -79 26z"/></svg>
