<svg xmlns="http://www.w3.org/2000/svg" viewBox="0 0 64 64" fill="#1a1a1a"><path transform="translate(0,64) scale(0.0125,-0.0125)" d="M2455 4341 c-71 -29 -139 -68 -159 -90 -11 -12 -25 -21 -31 -21 -7 0
-18 -7 -25 -15 -7 -8 -21 -15 -32 -15 -45 0 -174 -54 -267 -112 -27 -17 -37
-19 -52 -10 -33 21 -196 15 -259 -9 -30 -11 -77 -27 -105 -36 -27 -8 -68 -21
-90 -29 -23 -8 -49 -14 -58 -14 -32 0 -147 -60 -189 -98 -68 -62 -102 -128
-129 -250 -8 -41 -23 -67 -65 -115 -30 -34 -54 -69 -54 -77 0 -9 -5 -21 -10
-26 -15 -15 -32 -106 -37 -201 -4 -77 -8 -87 -54 -164 -27 -45 -49 -91 -49
-102 0 -11 -9 -34 -20 -52 -19 -30 -25 -33 -82 -37 -53 -4 -64 -8 -85 -34 -23
-28 -23 -32 -19 -199 4 -186 19 -370 34 -425 6 -19 17 -69 25 -110 28 -134 40
-173 111 -355 23 -58 80 -162 129 -235 21 -30 47 -69 58 -86 22 -36 133 -129
229 -194 128 -86 370 -190 480 -205 25 -4 54 -11 65 -15 20 -9 152 -26 304
-38 l83 -7 57 -75 c53 -71 59 -76 106 -84 108 -19 534 -2 571 23 26 17 48 58
70 131 9 30 19 57 21 60 3 3 86 8 186 12 296 11 482 37 582 83 17 7 48 21 70
30 132 54 218 112 334 226 136 134 208 252 290 474 13 33 29 75 37 93 8 18 14
37 14 42 0 5 11 33 24 62 40 90 119 355 127 428 4 38 2 242 -3 270 -3 14 -6
31 -6 38 -3 17 -65 15 -109 -3 -42 -18 -83 -20 -83 -4 0 10 -17 52 -61 154 -4
11 -22 44 -39 73 -32 56 -37 81 -19 99 12 12 7 129 -8 203 -10 46 -45 117 -66
135 -32 26 -80 101 -141 220 -55 107 -77 140 -129 188 -34 33 -75 66 -92 75
-40 21 -118 35 -185 33 -146 -5 -168 -3 -230 18 -145 50 -143 49 -185 106 -22
30 -43 55 -47 55 -4 0 -8 6 -8 13 0 16 -64 77 -105 99 -17 9 -67 24 -110 32
-44 8 -111 22 -150 31 -38 9 -94 21 -124 26 -29 5 -62 14 -72 19 -27 15 -119
10 -164 -9z m248 -176 c31 -16 57 -33 57 -37 0 -12 29 -10 67 4 26 10 43 9 81
-1 86 -23 137 -65 208 -171 36 -53 75 -102 87 -108 12 -6 45 -13 72 -16 28 -4
82 -19 120 -33 80 -31 185 -36 256 -13 32 11 45 11 60 2 10 -7 28 -12 40 -12
30 0 95 -55 125 -105 14 -24 29 -67 35 -97 5 -29 13 -66 16 -83 5 -29 48 -85
65 -85 20 0 71 -48 97 -90 23 -38 27 -54 24 -100 -2 -30 -6 -98 -9 -151 -6
-107 -14 -86 94 -257 34 -54 62 -103 62 -108 0 -5 -8 -16 -17 -25 -10 -8 -43
-46 -72 -85 -119 -151 -233 -224 -379 -244 -46 -6 -100 -18 -120 -27 -67 -29
-137 -66 -168 -90 -17 -13 -37 -23 -44 -23 -8 0 -100 -87 -204 -193 -223 -225
-251 -266 -365 -534 -55 -132 -111 -222 -141 -230 -30 -8 -226 -7 -342 2 -97
7 -93 5 -154 105 -35 57 -74 144 -156 345 -12 28 -27 64 -34 80 -7 17 -22 56
-34 87 -70 183 -209 369 -331 443 -30 19 -63 43 -74 55 -10 11 -22 20 -27 20
-4 0 -33 20 -63 44 -59 49 -140 98 -285 173 -302 156 -344 186 -334 232 14 61
72 159 126 214 45 45 56 62 49 75 -5 9 -14 46 -20 82 -6 36 -13 77 -17 91 -5
21 4 37 43 85 74 90 110 146 116 179 3 17 11 57 18 90 21 109 99 185 188 185
53 0 125 19 240 65 57 22 105 35 120 32 28 -5 86 -25 113 -38 10 -5 36 -15 59
-23 l41 -14 53 56 c29 32 65 72 80 90 22 26 34 32 67 32 21 0 48 -5 59 -11 18
-9 29 -3 81 50 114 114 254 147 371 86z m-1875 -1522 c37 -21 74 -42 84 -48
18 -11 283 -144 367 -184 30 -14 68 -37 85 -51 16 -14 53 -41 82 -60 248 -165
311 -224 373 -355 67 -138 141 -307 141 -320 0 -9 56 -139 86 -198 13 -27 24
-53 24 -59 0 -10 56 -108 92 -160 31 -46 25 -59 -24 -52 -24 3 -52 9 -63 14
-11 4 -51 16 -88 25 -38 10 -107 37 -154 61 -117 60 -252 176 -253 217 0 10
-6 30 -14 45 -12 24 -18 54 -31 147 -4 34 -21 146 -28 187 -11 60 -29 63 -57
9 -16 -32 -20 -61 -21 -148 0 -60 3 -122 7 -138 l7 -30 -27 24 c-14 14 -26 30
-26 36 0 6 -15 29 -33 51 -42 49 -72 100 -139 234 -72 145 -99 214 -113 292
-5 28 -15 42 -42 58 -33 19 -113 28 -113 12 0 -7 43 -130 57 -162 3 -8 14 -35
23 -60 10 -25 27 -70 40 -100 12 -30 24 -64 28 -75 19 -66 140 -252 214 -329
15 -17 28 -35 29 -40 1 -10 24 -31 166 -153 38 -33 143 -114 185 -144 13 -10
20 -20 16 -24 -6 -7 -134 33 -195 61 -17 8 -36 14 -42 14 -6 0 -29 11 -51 25
-22 14 -44 25 -50 25 -8 0 -62 37 -200 138 -41 30 -131 134 -178 207 -42 63
-112 206 -122 248 -4 18 -18 61 -30 97 -33 97 -39 120 -49 185 -6 33 -15 83
-20 110 -5 28 -10 70 -10 95 -1 26 -5 50 -10 55 -5 6 -12 65 -15 133 -6 143
-8 141 92 85z m3624 -100 c-6 -15 -14 -44 -17 -63 -7 -35 -67 -219 -105 -320
-12 -30 -31 -84 -44 -120 -54 -148 -69 -187 -91 -235 -12 -27 -31 -68 -40 -90
-47 -106 -174 -255 -280 -328 -68 -47 -163 -97 -185 -97 -8 0 -23 -7 -33 -15
-11 -7 -38 -17 -60 -20 -23 -4 -51 -12 -61 -18 -20 -10 -157 -36 -231 -43 -22
-2 -61 -7 -87 -10 -27 -4 -48 -3 -48 2 0 5 55 36 123 69 113 55 223 121 341
205 62 45 270 251 317 316 20 27 45 65 55 84 11 19 28 48 39 65 39 58 67 155
45 155 -24 0 -132 -108 -210 -210 -47 -62 -135 -156 -166 -178 -16 -12 -40
-31 -53 -43 -43 -41 -148 -116 -236 -170 -90 -56 -289 -159 -306 -159 -5 0
-37 -13 -71 -30 -70 -34 -78 -36 -78 -15 0 8 4 15 8 15 5 0 16 19 26 43 74
180 160 343 220 417 156 191 298 319 426 382 37 18 162 60 290 97 41 12 90 30
108 39 38 20 145 109 251 208 119 113 181 139 153 67z m-1678 -1462 c11 -17
-24 -80 -57 -105 -33 -25 -39 -26 -181 -26 -89 0 -156 4 -169 11 -35 18 -77
61 -77 79 0 21 57 29 200 31 52 1 106 5 120 9 35 11 158 12 164 1z M2640 3798
c-14 -7 -43 -19 -65 -29 -22 -10 -50 -27 -63 -39 -53 -50 -92 -143 -76 -184 8
-22 18 -20 51 9 136 122 160 132 301 118 82 -8 111 -16 163 -43 89 -46 124
-75 154 -126 36 -61 50 -52 49 27 0 71 -13 97 -77 165 -36 38 -60 52 -175 100
-40 17 -225 18 -262 2z M1650 3500 c-8 -5 -27 -10 -41 -10 -39 0 -132 -38
-184 -75 -16 -12 -37 -24 -47 -28 -9 -3 -33 -32 -55 -64 -33 -50 -39 -67 -43
-132 -6 -82 3 -113 45 -151 26 -24 27 -25 41 -6 8 11 14 40 14 65 2 124 26
162 140 220 30 15 78 40 107 55 56 28 67 28 156 -2 60 -20 71 -10 46 43 -21
43 -57 75 -92 81 -12 2 -33 6 -47 9 -14 3 -32 1 -40 -5z M2038 3492 c-32 -2
-58 -5 -58 -8 0 -3 7 -18 15 -33 16 -32 61 -61 120 -78 22 -7 62 -18 90 -27
51 -15 65 -14 65 8 0 27 -104 118 -152 134 -13 4 -49 6 -80 4z M3310 3281
c-52 -32 -57 -52 -15 -62 109 -26 162 -41 189 -53 17 -8 39 -17 50 -20 13 -5
17 -12 12 -31 -9 -34 23 -90 89 -155 l55 -54 0 -78 c0 -70 2 -78 19 -78 27 0
77 61 85 104 11 56 -17 133 -83 232 -133 202 -276 271 -401 195z M2290 3074
c-14 -3 -84 -34 -155 -69 -89 -43 -148 -66 -185 -70 -97 -12 -174 -76 -194
-160 -22 -93 -25 -114 -26 -159 l0 -48 32 6 c41 8 58 23 58 52 0 12 5 26 10
29 6 3 10 18 10 33 1 29 34 71 94 117 41 31 107 42 153 24 22 -8 31 -3 83 45
71 65 151 95 245 91 56 -2 135 -31 149 -54 10 -15 87 -52 96 -46 12 7 3 30
-33 83 -30 45 -71 79 -125 105 -33 16 -167 29 -212 21z M3093 2564 c-3 -9 -1
-24 5 -33 33 -49 83 -164 113 -260 17 -54 31 -60 54 -24 27 41 32 150 9 199
-22 47 -77 102 -121 120 -42 18 -52 18 -60 -2z M2698 2181 c-42 -38 -42 -39
-47 -127 -7 -108 -13 -117 -146 -240 -53 -48 -94 -92 -92 -98 7 -20 108 -5
172 25 113 53 174 143 175 256 0 34 5 65 10 68 6 3 10 40 10 81 0 68 -2 74
-20 74 -12 0 -39 -17 -62 -39z"/></svg>
