<svg xmlns="http://www.w3.org/2000/svg" viewBox="0 0 64 64" fill="#1a1a1a"><path transform="translate(0,64) scale(0.0125,-0.0125)" d="M2583 4632 c-28 -37 -55 -76 -61 -87 -23 -46 -52 -142 -52 -177 0
-20 -4 -40 -10 -43 -5 -3 -10 -28 -10 -54 0 -80 -11 -141 -26 -141 -8 0 -44
15 -81 34 -38 19 -95 43 -128 54 -111 35 -150 46 -170 48 -44 5 -103 13 -160
22 -80 14 -186 14 -202 0 -8 -6 -13 -33 -13 -69 0 -57 15 -97 65 -173 19 -28
19 -29 0 -42 -10 -8 -24 -14 -29 -14 -57 -2 -240 -10 -271 -13 -50 -4 -156
-51 -185 -82 -20 -21 -21 -25 -7 -51 24 -45 153 -154 182 -154 7 0 20 -9 29
-19 17 -18 16 -20 -10 -38 -60 -40 -208 -192 -249 -255 -53 -81 -115 -199
-115 -219 0 -8 -7 -23 -15 -33 -8 -11 -15 -31 -15 -44 0 -13 -5 -32 -11 -43
-19 -36 -24 -109 -23 -309 2 -223 3 -237 32 -342 85 -303 185 -500 460 -900
96 -139 128 -182 155 -206 9 -9 17 -20 17 -24 0 -5 28 -42 62 -84 35 -42 68
-83 73 -93 14 -23 144 -154 233 -235 99 -89 234 -178 310 -204 112 -39 369
-25 422 23 9 8 22 15 28 15 11 0 111 57 122 69 3 4 25 22 50 42 90 73 276 266
350 364 14 18 58 77 99 132 41 54 81 102 88 106 7 4 13 12 13 17 0 6 19 36 43
67 63 83 128 180 165 243 18 30 37 62 42 70 92 147 166 301 220 455 22 66 48
137 56 158 8 20 14 55 14 76 0 21 6 54 14 73 18 42 16 279 -2 378 -53 280
-215 546 -414 681 -32 22 -58 41 -58 43 0 5 130 89 152 98 17 7 31 24 84 107
19 30 33 60 30 66 -2 7 -19 15 -38 18 -18 4 -58 11 -88 17 -30 6 -66 12 -80
14 -14 3 -54 10 -90 16 -36 7 -74 13 -85 15 -147 19 -137 15 -132 44 8 38 28
113 38 136 16 41 20 96 8 111 -20 25 -282 11 -315 -17 -7 -6 -17 -8 -21 -6
-24 15 -204 -47 -354 -121 -59 -28 -112 -52 -119 -52 -8 0 -10 12 -7 38 6 40
30 137 39 162 4 8 16 43 27 78 12 35 37 94 56 132 38 75 41 95 24 133 -12 26
-36 42 -80 51 -23 5 -32 -2 -76 -62z m-629 -522 c17 -5 65 -19 106 -31 41 -12
82 -25 90 -30 8 -4 55 -25 104 -47 93 -41 146 -77 222 -149 25 -24 52 -43 60
-43 9 0 30 11 48 25 18 14 37 25 43 25 5 0 27 19 49 43 21 23 57 56 79 73 40
32 200 94 242 94 12 0 24 4 27 9 3 5 32 12 63 16 32 4 64 12 71 17 7 6 15 8
19 5 7 -7 -28 -41 -105 -102 -28 -22 -51 -45 -52 -51 0 -16 35 -37 95 -58 28
-10 59 -22 70 -26 19 -8 49 -14 215 -45 116 -21 140 -32 109 -50 -13 -9 -220
-8 -435 1 -182 8 -196 3 -147 -49 37 -39 102 -129 129 -177 10 -19 31 -52 47
-74 15 -21 27 -49 27 -61 0 -13 7 -28 15 -35 17 -14 20 -36 6 -45 -11 -6 -99
13 -116 25 -5 4 -23 10 -40 14 -29 7 -167 93 -173 108 -2 4 -8 8 -14 8 -6 0
-27 15 -47 33 -20 17 -51 43 -70 57 -18 14 -56 44 -85 68 -29 23 -59 42 -66
42 -14 0 -77 -48 -135 -102 -21 -21 -42 -38 -46 -38 -4 0 -15 -7 -24 -16 -20
-20 -133 -104 -140 -104 -3 0 -22 -11 -43 -24 -20 -12 -48 -26 -62 -30 -14 -4
-34 -11 -45 -15 -115 -48 -143 -37 -102 39 46 84 185 274 248 338 34 34 14 46
-63 38 -35 -4 -88 -9 -118 -13 -68 -7 -284 -8 -325 -1 -70 11 -96 21 -105 37
-8 17 0 19 108 25 64 4 121 11 127 15 5 5 33 11 60 15 50 6 108 24 133 39 6 5
12 24 12 43 0 29 -10 45 -51 89 -28 30 -60 57 -70 60 -11 4 -19 11 -19 16 0
12 35 12 74 -1z m-112 -516 c3 -3 -14 -44 -38 -92 -70 -142 -104 -218 -104
-235 0 -9 -4 -19 -10 -22 -20 -12 -10 -33 23 -47 53 -24 327 -9 384 20 10 5
34 12 54 16 39 7 181 80 234 121 19 14 37 25 40 25 4 0 30 25 58 55 28 30 55
55 60 55 5 0 38 -27 74 -59 81 -75 275 -191 318 -191 9 0 30 -7 47 -16 17 -9
47 -17 67 -19 21 -1 47 -7 59 -14 11 -6 75 -14 141 -18 110 -5 121 -4 127 12
4 10 2 26 -4 36 -7 10 -12 31 -12 47 0 28 -67 202 -99 257 -37 63 -36 68 11
60 104 -17 246 -81 329 -150 20 -16 46 -37 57 -45 21 -16 74 -82 133 -165 140
-199 170 -479 85 -798 -28 -107 -91 -279 -111 -307 -6 -8 -20 -35 -30 -60 -34
-79 -198 -342 -268 -428 -17 -23 -50 -66 -72 -97 -22 -31 -47 -64 -55 -73 -24
-26 -70 -90 -70 -96 0 -7 -102 -136 -166 -211 -69 -80 -160 -172 -217 -219
-74 -60 -206 -136 -237 -136 -14 0 -38 -7 -54 -15 -68 -36 -163 -6 -331 102
-56 36 -50 31 -129 98 -32 28 -75 71 -95 96 -20 25 -70 87 -111 137 -41 50
-87 108 -103 129 -15 21 -47 63 -70 93 -23 30 -49 65 -57 77 -82 120 -126 181
-140 198 -10 11 -26 36 -37 55 -10 19 -40 68 -66 107 -134 208 -267 552 -267
694 0 26 -4 51 -10 54 -13 8 -13 249 -1 273 6 9 13 38 16 64 3 26 10 50 16 53
5 4 9 16 9 27 0 25 51 133 94 198 40 62 170 194 234 238 90 62 106 71 133 71
15 1 32 8 39 16 7 8 22 15 34 15 11 0 28 5 36 10 17 11 44 13 52 4z M3630
3003 c-30 -68 -22 -165 20 -252 23 -49 72 6 114 127 20 55 11 95 -29 138 -48
51 -78 47 -105 -13z M1361 3018 c-31 -11 -47 -56 -46 -128 2 -60 16 -134 28
-147 15 -15 51 16 93 78 44 67 46 73 41 121 -4 28 -11 56 -17 63 -13 16 -71
24 -99 13z M2533 3020 c-57 -13 -63 -24 -63 -116 0 -94 21 -164 49 -164 21 0
63 43 85 87 23 45 22 155 -1 175 -28 23 -36 25 -70 18z M1889 3004 c-7 -9 -15
-45 -17 -81 -4 -53 0 -73 18 -111 42 -83 72 -103 90 -59 23 56 51 179 44 200
-15 48 -37 66 -80 67 -26 0 -46 -6 -55 -16z M3085 2993 c-12 -18 -17 -46 -17
-89 0 -53 4 -69 28 -103 38 -53 62 -53 108 1 31 36 36 49 36 93 0 78 -38 125
-101 125 -29 0 -40 -6 -54 -27z M2186 2454 c-14 -26 -26 -52 -26 -60 0 -7 -5
-25 -12 -39 -17 -37 7 -99 51 -136 l36 -30 25 30 c50 59 80 105 80 122 0 27
-92 159 -112 159 -9 0 -28 -20 -42 -46z M2812 2457 c-17 -18 -34 -47 -38 -65
-10 -50 36 -212 60 -212 23 0 85 76 101 123 18 55 10 96 -33 155 -29 41 -50
40 -90 -1z M1598 2457 c-80 -31 -61 -191 30 -252 43 -29 46 -30 66 -9 13 12
16 39 16 129 0 62 -3 120 -6 129 -7 19 -63 20 -106 3z M3407 2440 c-35 -28
-50 -100 -31 -146 17 -41 81 -114 99 -114 21 0 75 129 75 177 0 32 -27 90 -45
97 -31 12 -72 6 -98 -14z M1896 1888 c-18 -26 -23 -202 -6 -213 6 -3 10 -17
10 -30 0 -13 5 -27 11 -30 18 -12 85 41 103 82 10 21 22 48 29 61 9 18 7 29
-6 51 -9 16 -17 36 -17 44 0 19 -59 57 -88 57 -12 0 -28 -10 -36 -22z M2496
1881 c-24 -25 -28 -37 -27 -83 0 -79 20 -128 60 -155 19 -13 39 -22 45 -20 25
8 48 82 48 155 0 67 -2 76 -28 103 -35 37 -63 37 -98 0z M3079 1893 c-22 -26
-18 -187 6 -245 11 -27 25 -48 31 -48 15 0 37 26 73 88 24 41 31 65 31 105 0
61 -3 66 -53 95 -46 26 -70 28 -88 5z M2793 1358 c-33 -53 -43 -123 -28 -205
7 -40 10 -43 39 -43 23 0 41 9 64 33 29 30 32 39 32 93 0 54 -3 64 -33 97 -33
38 -60 47 -74 25z M2213 1353 c-7 -2 -20 -20 -30 -40 -21 -45 -9 -81 54 -170
58 -81 79 -83 87 -10 16 158 16 159 -19 194 -31 31 -60 39 -92 26z"/></svg>
